<?xml version="1.0" encoding="UTF-8"?>
<svg id="uuid-e64bdf06-6ff1-4b04-b0cd-2177db5157f2" data-name="Capa 2" xmlns="http://www.w3.org/2000/svg" viewBox="0 0 83.34 83.33">
  <g id="uuid-7dbd6d1f-301f-4b3a-b428-9ac7db3ba736" data-name="Capa 1">
    <path d="M58.34,0H25C11.22,0,0,11.22,0,25v33.33c0,13.79,11.22,25,25,25h33.33c13.79,0,25-11.21,25-25V25C83.34,11.22,72.12,0,58.34,0h0ZM75,58.34c0,9.19-7.48,16.67-16.67,16.67H25c-9.19,0-16.67-7.48-16.67-16.67V25c0-9.19,7.48-16.67,16.67-16.67h33.33c9.19,0,16.67,7.48,16.67,16.67v33.34ZM41.67,20.84c-11.49,0-20.83,9.35-20.83,20.83s9.35,20.83,20.83,20.83,20.83-9.35,20.83-20.83-9.34-20.83-20.83-20.83ZM41.67,54.17c-6.89,0-12.5-5.61-12.5-12.5s5.61-12.5,12.5-12.5,12.5,5.61,12.5,12.5-5.61,12.5-12.5,12.5ZM65.46,17.88c.75.79,1.21,1.88,1.21,2.96s-.46,2.17-1.21,2.96c-.79.75-1.88,1.21-2.96,1.21s-2.17-.46-2.96-1.21c-.75-.79-1.21-1.87-1.21-2.96s.46-2.17,1.21-2.96c1.58-1.54,4.33-1.54,5.92,0h0Z"/>
  </g>
</svg>