<?xml version="1.0" encoding="UTF-8"?>
<svg id="uuid-7ca65c7f-0b9f-4770-a29c-bf5e6ada45c1" data-name="Capa 2" xmlns="http://www.w3.org/2000/svg" viewBox="0 0 953.01 446.19">
  <defs>
    <style>
      .uuid-96c6668b-85f0-4f2e-b944-c3520415a9bc {
        stroke-width: .05px;
      }

      .uuid-96c6668b-85f0-4f2e-b944-c3520415a9bc, .uuid-ea42379d-734c-47db-86b8-e0daa5eb8564, .uuid-835fef03-407c-41cb-918e-e0ca1bfbe975, .uuid-3dc1946e-6628-4fe4-a5a9-2d238011f941 {
        fill: none;
        stroke: #1d1d1b;
        stroke-miterlimit: 10;
      }

      .uuid-53076eb2-38b0-415f-a46b-a7751e609784, .uuid-9487b17f-bee9-423a-b39a-ecd929b124f2, .uuid-7efe15fb-e1f7-4767-953e-a7467a1c1aaf {
        fill: #2b64ad;
      }

      .uuid-9487b17f-bee9-423a-b39a-ecd929b124f2, .uuid-fc1fefef-f44b-43a9-a3ad-b678adab4ed0 {
        font-family: BarlowSemiCondensed-SemiBold, 'Barlow Semi Condensed';
        font-weight: 600;
      }

      .uuid-9487b17f-bee9-423a-b39a-ecd929b124f2, .uuid-7efe15fb-e1f7-4767-953e-a7467a1c1aaf {
        font-size: 28px;
      }

      .uuid-ea42379d-734c-47db-86b8-e0daa5eb8564, .uuid-835fef03-407c-41cb-918e-e0ca1bfbe975 {
        stroke-width: .75px;
      }

      .uuid-ea42379d-734c-47db-86b8-e0daa5eb8564, .uuid-6698fa1c-9a21-4b6b-b8b4-b729b41b7d9c {
        opacity: .3;
      }

      .uuid-fc1fefef-f44b-43a9-a3ad-b678adab4ed0 {
        fill: #fff;
        font-size: 23.77px;
      }

      .uuid-3dc1946e-6628-4fe4-a5a9-2d238011f941 {
        stroke-width: .15px;
      }

      .uuid-55e0696c-cb8f-4bae-a180-bda0d03cf60c {
        letter-spacing: -.04em;
      }

      .uuid-cfb13bf4-cd12-448e-a6ab-eea92ec93e63 {
        letter-spacing: 0em;
      }

      .uuid-e588aeab-c07c-430e-94f0-33e717473858 {
        letter-spacing: 0em;
      }

      .uuid-4fb39139-19d1-4158-a3fb-45f6c4d78cb3 {
        letter-spacing: 0em;
      }

      .uuid-362c36f6-90e2-430f-83a8-2d6ea097995a {
        letter-spacing: 0em;
      }

      .uuid-8f2355fe-f38d-471d-8f18-2e399d48aa97 {
        letter-spacing: 0em;
      }

      .uuid-7efe15fb-e1f7-4767-953e-a7467a1c1aaf {
        font-family: BarlowSemiCondensed-Regular, 'Barlow Semi Condensed';
      }
    </style>
  </defs>
  <g id="uuid-4985528e-9ca9-478c-ad9c-6df1f9325bb0" data-name="Capa 1">
    <text class="uuid-9487b17f-bee9-423a-b39a-ecd929b124f2" transform="translate(375.74 440.06)"><tspan x="0" y="0">Vi</tspan><tspan class="uuid-362c36f6-90e2-430f-83a8-2d6ea097995a" x="21.7" y="0">s</tspan><tspan x="34.16" y="0">ta l</tspan><tspan class="uuid-e588aeab-c07c-430e-94f0-33e717473858" x="68.46" y="0">a</tspan><tspan class="uuid-cfb13bf4-cd12-448e-a6ab-eea92ec93e63" x="81.73" y="0">t</tspan><tspan x="90.77" y="0">e</tspan><tspan class="uuid-e588aeab-c07c-430e-94f0-33e717473858" x="104.33" y="0">r</tspan><tspan x="113.79" y="0">al</tspan></text>
    <text class="uuid-7efe15fb-e1f7-4767-953e-a7467a1c1aaf" transform="translate(730.62 293.79)"><tspan x="0" y="0">Ent</tspan><tspan class="uuid-8f2355fe-f38d-471d-8f18-2e399d48aa97" x="36.79" y="0">r</tspan><tspan x="45.95" y="0">ada </tspan><tspan class="uuid-e588aeab-c07c-430e-94f0-33e717473858" x="90.97" y="0">p</tspan><tspan x="104.58" y="0">or </tspan><tspan x="0" y="31">Plaza </tspan><tspan class="uuid-55e0696c-cb8f-4bae-a180-bda0d03cf60c" x="63" y="31">V</tspan><tspan x="76.19" y="31">e</tspan><tspan class="uuid-4fb39139-19d1-4158-a3fb-45f6c4d78cb3" x="89.35" y="31">r</tspan><tspan x="98.33" y="31">ga</tspan><tspan class="uuid-8f2355fe-f38d-471d-8f18-2e399d48aa97" x="124.54" y="31">r</tspan><tspan x="133.7" y="31">a</tspan></text>
    <g>
      <polyline class="uuid-3dc1946e-6628-4fe4-a5a9-2d238011f941" points="649.01 164.47 514.57 125.16 467.75 125.16"/>
      <polyline class="uuid-3dc1946e-6628-4fe4-a5a9-2d238011f941" points="259.51 5.65 259.51 .38 265.86 .38 265.86 172.27 333.32 172.27 374.36 148.91 374.36 108.99 467.75 108.99 467.75 125.16"/>
      <line class="uuid-3dc1946e-6628-4fe4-a5a9-2d238011f941" x1="259.51" y1="5.65" x2="62.64" y2="5.65"/>
      <polyline class="uuid-3dc1946e-6628-4fe4-a5a9-2d238011f941" points="464.4 108.99 464.4 99.81 433.07 82.33 421.38 82.33"/>
      <polyline class="uuid-3dc1946e-6628-4fe4-a5a9-2d238011f941" points="378.36 108.99 378.36 99.81 409.69 82.33 421.38 82.33"/>
      <rect class="uuid-3dc1946e-6628-4fe4-a5a9-2d238011f941" x="452.29" y="108.99" width="5.86" height="9.89" transform="translate(910.44 227.86) rotate(-180)"/>
      <rect class="uuid-3dc1946e-6628-4fe4-a5a9-2d238011f941" x="432.11" y="108.99" width="9.89" height="9.89" transform="translate(874.11 227.86) rotate(-180)"/>
      <rect class="uuid-3dc1946e-6628-4fe4-a5a9-2d238011f941" x="383.76" y="108.99" width="5.86" height="9.89"/>
      <rect class="uuid-3dc1946e-6628-4fe4-a5a9-2d238011f941" x="399.91" y="108.99" width="9.89" height="9.89"/>
      <path class="uuid-3dc1946e-6628-4fe4-a5a9-2d238011f941" d="M591.74,314.49v-60.55h2s0-3.25,0-3.25h2.72s0-4.27,0-4.27h-4.67c9.22-18.93,28.64-31.97,51.1-31.97,21.76,0,40.66,12.24,50.21,30.2h-4.28s0,6.04,0,6.04h2.82v3.27s1.97,0,1.97,0v10.3h-1.89s0,80.61,0,81.31l-99.98.56v-35.61"/>
      <g class="uuid-6698fa1c-9a21-4b6b-b8b4-b729b41b7d9c">
        <polyline class="uuid-835fef03-407c-41cb-918e-e0ca1bfbe975" points="378.36 108.99 378.36 99.81 409.69 82.33 421.38 82.33"/>
        <polyline class="uuid-835fef03-407c-41cb-918e-e0ca1bfbe975" points="464.4 108.99 467.75 108.99 467.75 125.16 514.57 125.16 649.01 164.47 649.01 166.82"/>
        <polyline class="uuid-835fef03-407c-41cb-918e-e0ca1bfbe975" points="259.51 5.65 259.51 .38 265.86 .38 265.86 172.27 333.32 172.27 374.36 148.91 374.36 108.99 378.36 108.99"/>
        <line class="uuid-835fef03-407c-41cb-918e-e0ca1bfbe975" x1="259.51" y1="5.65" x2="62.64" y2="5.65"/>
        <polyline class="uuid-835fef03-407c-41cb-918e-e0ca1bfbe975" points="464.4 108.99 464.4 99.81 433.07 82.33 421.38 82.33"/>
        <polyline class="uuid-835fef03-407c-41cb-918e-e0ca1bfbe975" points="649.01 166.83 651.16 166.83 651.16 161.46 655.28 161.46 655.28 173.75 659.27 173.75 659.27 180.61 654.75 180.61 654.75 199.63 698.04 215.17 698.04 217.9 701.12 217.9 701.12 207.8 704.38 207.8 704.38 210.99 704.38 226.91 711.28 226.91 711.28 231.04 706.78 235.54 706.78 238.46 704.73 238.46 704.73 256.43 703.32 256.43 703.32 346.12 705.55 346.12 705.55 391.51 692.54 391.51 692.54 384.6 593.78 384.6 593.78 391.01 584.65 391.01 584.65 381.69 587.4 381.69 587.4 349.12 551 349.12 551 357.56 542.27 357.56 542.27 348.14 510.77 348.14 510.77 380.71 246.76 380.71 246.76 377.76 64.71 377.76 64.71 388.09 54.51 388.09 54.51 377.89 57.51 377.89 57.51 368.67 26.99 368.67 26.99 338.42 57.54 338.42 57.28 313.61 57.28 .49 62.64 .49 62.64 5.65"/>
      </g>
      <polygon class="uuid-3dc1946e-6628-4fe4-a5a9-2d238011f941" points="63.09 339.18 265.23 345.54 265.23 187.05 62.64 187.05 63.09 339.18"/>
      <polygon class="uuid-3dc1946e-6628-4fe4-a5a9-2d238011f941" points="302.2 362.4 507.91 351.5 507.91 345.7 543.68 346.28 543.68 318.14 318.43 317.56 302.2 317.56 302.2 362.4"/>
      <polygon class="uuid-3dc1946e-6628-4fe4-a5a9-2d238011f941" points="498.06 318.03 498.06 302.22 500.58 302.22 500.58 308.65 517.39 308.65 517.39 307.45 543.84 307.45 543.84 271.97 318.16 271.97 318.16 317.56 498.06 318.03"/>
      <polygon class="uuid-3dc1946e-6628-4fe4-a5a9-2d238011f941" points="377.04 271.97 377.04 261.83 385.61 261.83 385.61 250.6 387.38 250.6 387.38 235.57 543.84 235.57 543.84 271.97 377.04 271.97"/>
      <path class="uuid-3dc1946e-6628-4fe4-a5a9-2d238011f941" d="M586.43,226.93c.83,0,1.34,0,1.34,0v-38.55s0-5.87,0-5.87h-39.08s0,7.47,0,7.47h-92.47s-.35,45.58-.35,45.58h114.56s0-8.64,0-8.64h3.19s9.28,0,12.81,0Z"/>
      <path class="uuid-3dc1946e-6628-4fe4-a5a9-2d238011f941" d="M507.45,180.28c-23.49-19.41-53.62-31.07-86.47-31.07-33.27,0-63.75,11.96-87.37,31.92v6.24s174.86,0,174.86,0v-6.24c-.34-.28-.68-.57-1.02-.85Z"/>
      <path class="uuid-3dc1946e-6628-4fe4-a5a9-2d238011f941" d="M502.46,181.13c-.34-.28-.68-.57-1.02-.85-22.13-18.29-50.16-29.7-80.8-30.96"/>
      <path class="uuid-3dc1946e-6628-4fe4-a5a9-2d238011f941" d="M339.65,181.13c.34-.28.68-.57,1.02-.85,22.13-18.29,50.16-29.7,80.8-30.96"/>
      <line class="uuid-3dc1946e-6628-4fe4-a5a9-2d238011f941" x1="508.47" y1="181.13" x2="333.61" y2="181.13"/>
      <line class="uuid-3dc1946e-6628-4fe4-a5a9-2d238011f941" x1="502.36" y1="187.37" x2="502.36" y2="181.13"/>
      <line class="uuid-3dc1946e-6628-4fe4-a5a9-2d238011f941" x1="493.14" y1="187.37" x2="493.14" y2="181.13"/>
      <line class="uuid-3dc1946e-6628-4fe4-a5a9-2d238011f941" x1="483.91" y1="187.37" x2="483.91" y2="181.13"/>
      <line class="uuid-3dc1946e-6628-4fe4-a5a9-2d238011f941" x1="474.69" y1="187.37" x2="474.69" y2="181.13"/>
      <line class="uuid-3dc1946e-6628-4fe4-a5a9-2d238011f941" x1="465.47" y1="187.37" x2="465.47" y2="181.13"/>
      <line class="uuid-3dc1946e-6628-4fe4-a5a9-2d238011f941" x1="453.34" y1="187.37" x2="453.34" y2="181.13"/>
      <line class="uuid-3dc1946e-6628-4fe4-a5a9-2d238011f941" x1="444.59" y1="187.37" x2="444.59" y2="181.13"/>
      <line class="uuid-3dc1946e-6628-4fe4-a5a9-2d238011f941" x1="430.81" y1="187.37" x2="430.81" y2="181.13"/>
      <line class="uuid-3dc1946e-6628-4fe4-a5a9-2d238011f941" x1="339.65" y1="187.37" x2="339.65" y2="181.13"/>
      <line class="uuid-3dc1946e-6628-4fe4-a5a9-2d238011f941" x1="348.87" y1="187.37" x2="348.87" y2="181.13"/>
      <line class="uuid-3dc1946e-6628-4fe4-a5a9-2d238011f941" x1="358.1" y1="187.37" x2="358.1" y2="181.13"/>
      <line class="uuid-3dc1946e-6628-4fe4-a5a9-2d238011f941" x1="367.32" y1="187.37" x2="367.32" y2="181.13"/>
      <line class="uuid-3dc1946e-6628-4fe4-a5a9-2d238011f941" x1="376.54" y1="187.37" x2="376.54" y2="181.13"/>
      <line class="uuid-3dc1946e-6628-4fe4-a5a9-2d238011f941" x1="388.68" y1="187.37" x2="388.68" y2="181.13"/>
      <line class="uuid-3dc1946e-6628-4fe4-a5a9-2d238011f941" x1="397.42" y1="187.37" x2="397.42" y2="181.13"/>
      <line class="uuid-3dc1946e-6628-4fe4-a5a9-2d238011f941" x1="411.2" y1="187.37" x2="411.2" y2="181.13"/>
      <line class="uuid-3dc1946e-6628-4fe4-a5a9-2d238011f941" x1="420.69" y1="187.37" x2="420.69" y2="149.22"/>
      <path class="uuid-3dc1946e-6628-4fe4-a5a9-2d238011f941" d="M418.93,149.23c-5.41,7.67-7.79,17.56-7.79,28.36,0,1.19.04,2.37.12,3.54"/>
      <path class="uuid-3dc1946e-6628-4fe4-a5a9-2d238011f941" d="M423.03,149.23c5.41,7.67,7.79,17.56,7.79,28.36,0,1.19-.04,2.37-.12,3.54"/>
      <path class="uuid-3dc1946e-6628-4fe4-a5a9-2d238011f941" d="M417.4,149.26c-11.01,6.69-18.82,18.35-19.98,31.88"/>
      <path class="uuid-3dc1946e-6628-4fe4-a5a9-2d238011f941" d="M424.61,149.26c11.01,6.69,18.82,18.35,19.98,31.88"/>
      <path class="uuid-3dc1946e-6628-4fe4-a5a9-2d238011f941" d="M429.34,149.78c12.16,5.91,21.45,17.34,23.99,31.35"/>
      <path class="uuid-3dc1946e-6628-4fe4-a5a9-2d238011f941" d="M412.67,149.78c-12.16,5.91-21.45,17.34-23.99,31.35"/>
      <path class="uuid-3dc1946e-6628-4fe4-a5a9-2d238011f941" d="M376.23,181.33c7.81-13.58,19.52-24.63,33.6-31.62"/>
      <path class="uuid-3dc1946e-6628-4fe4-a5a9-2d238011f941" d="M465.47,181.33c-7.81-13.58-19.52-24.63-33.6-31.62"/>
      <path class="uuid-3dc1946e-6628-4fe4-a5a9-2d238011f941" d="M474.69,181.13c-9.06-13.47-21.96-24.05-37.02-30.25"/>
      <path class="uuid-3dc1946e-6628-4fe4-a5a9-2d238011f941" d="M367.32,181.13c9.06-13.47,21.96-24.05,37.02-30.25"/>
      <polyline class="uuid-ea42379d-734c-47db-86b8-e0daa5eb8564" points="706.69 346.12 724.06 346.12 746.84 356.76 777.58 356.76 802.46 369.2"/>
      <line class="uuid-ea42379d-734c-47db-86b8-e0daa5eb8564" x1="26.99" y1="368.67" x2="0" y2="368.67"/>
    </g>
    <path class="uuid-96c6668b-85f0-4f2e-b944-c3520415a9bc" d="M624.98,217.32c13.95,4.63,25.5,14.52,32.3,27.32h-4.28"/>
    <g>
      <circle class="uuid-53076eb2-38b0-415f-a46b-a7751e609784" cx="163.93" cy="266.29" r="15.38"/>
      <text class="uuid-fc1fefef-f44b-43a9-a3ad-b678adab4ed0" transform="translate(158.24 274.29)"><tspan x="0" y="0">6</tspan></text>
    </g>
    <line class="uuid-96c6668b-85f0-4f2e-b944-c3520415a9bc" x1="688.82" y1="244.65" x2="621.95" y2="244.65"/>
    <line class="uuid-96c6668b-85f0-4f2e-b944-c3520415a9bc" x1="688.82" y1="250.72" x2="596.45" y2="250.72"/>
    <line class="uuid-96c6668b-85f0-4f2e-b944-c3520415a9bc" x1="691.72" y1="306.14" x2="591.74" y2="306.14"/>
    <line class="uuid-96c6668b-85f0-4f2e-b944-c3520415a9bc" x1="691.72" y1="310.03" x2="591.74" y2="310.03"/>
    <line class="uuid-96c6668b-85f0-4f2e-b944-c3520415a9bc" x1="691.66" y1="253.94" x2="593.73" y2="253.94"/>
    <rect class="uuid-96c6668b-85f0-4f2e-b944-c3520415a9bc" x="663.36" y="317.41" width="8.63" height="28.29" transform="translate(1335.36 663.1) rotate(-180)"/>
    <line class="uuid-96c6668b-85f0-4f2e-b944-c3520415a9bc" x1="665.97" y1="317.41" x2="665.97" y2="345.7"/>
    <rect class="uuid-96c6668b-85f0-4f2e-b944-c3520415a9bc" x="632.29" y="317.41" width="19.33" height="28.43" transform="translate(1283.9 663.25) rotate(-180)"/>
    <rect class="uuid-96c6668b-85f0-4f2e-b944-c3520415a9bc" x="634.24" y="318.92" width="15.42" height="22.3" transform="translate(1283.9 660.14) rotate(-180)"/>
    <line class="uuid-96c6668b-85f0-4f2e-b944-c3520415a9bc" x1="641.73" y1="317.41" x2="641.73" y2="345.84"/>
    <polyline class="uuid-96c6668b-85f0-4f2e-b944-c3520415a9bc" points="603.9 346 623.15 346 623.15 317.41 603.9 317.41 603.9 336.84"/>
    <line class="uuid-96c6668b-85f0-4f2e-b944-c3520415a9bc" x1="612.85" y1="317.41" x2="612.85" y2="346"/>
    <rect class="uuid-96c6668b-85f0-4f2e-b944-c3520415a9bc" x="684.47" y="317.41" width="4.31" height="27.95" transform="translate(1373.25 662.76) rotate(-180)"/>
    <line class="uuid-96c6668b-85f0-4f2e-b944-c3520415a9bc" x1="685.77" y1="317.41" x2="685.77" y2="345.36"/>
    <rect class="uuid-96c6668b-85f0-4f2e-b944-c3520415a9bc" x="591.74" y="343.66" width="21.12" height="2.11" transform="translate(1204.59 689.43) rotate(-180)"/>
    <rect class="uuid-96c6668b-85f0-4f2e-b944-c3520415a9bc" x="591.74" y="341.95" width="18.07" height="1.7" transform="translate(1201.54 685.61) rotate(-180)"/>
    <rect class="uuid-96c6668b-85f0-4f2e-b944-c3520415a9bc" x="591.74" y="340.25" width="13.62" height="1.7" transform="translate(1197.1 682.2) rotate(-180)"/>
    <rect class="uuid-96c6668b-85f0-4f2e-b944-c3520415a9bc" x="591.74" y="338.55" width="11.28" height="1.7" transform="translate(1194.75 678.79) rotate(-180)"/>
    <rect class="uuid-96c6668b-85f0-4f2e-b944-c3520415a9bc" x="591.74" y="336.84" width="10.45" height="1.7" transform="translate(1193.92 675.39) rotate(-180)"/>
    <rect class="uuid-96c6668b-85f0-4f2e-b944-c3520415a9bc" x="591.74" y="335.14" width="9.03" height="1.7" transform="translate(1192.5 671.98) rotate(-180)"/>
    <rect class="uuid-96c6668b-85f0-4f2e-b944-c3520415a9bc" x="591.74" y="333.43" width="7.52" height="1.7" transform="translate(1190.99 668.57) rotate(-180)"/>
    <rect class="uuid-96c6668b-85f0-4f2e-b944-c3520415a9bc" x="591.74" y="331.73" width="6.3" height="1.7" transform="translate(1189.77 665.16) rotate(-180)"/>
    <polyline class="uuid-96c6668b-85f0-4f2e-b944-c3520415a9bc" points="603.01 341.95 607.02 341.95 607.02 336.84 603.01 336.84 603.01 340.25"/>
    <line class="uuid-96c6668b-85f0-4f2e-b944-c3520415a9bc" x1="656.31" y1="345.76" x2="656.31" y2="310.09"/>
    <path class="uuid-96c6668b-85f0-4f2e-b944-c3520415a9bc" d="M600.77,262.21h20.64v41.18c0,1.51-1.23,2.74-2.74,2.74h-15.15c-1.51,0-2.74-1.23-2.74-2.74v-41.18h0Z" transform="translate(1222.18 568.35) rotate(-180)"/>
    <path class="uuid-96c6668b-85f0-4f2e-b944-c3520415a9bc" d="M602.8,265.44h16.32v38.53c0,1.2-.97,2.17-2.17,2.17h-11.98c-1.2,0-2.17-.97-2.17-2.17v-38.53h0Z" transform="translate(1221.92 571.58) rotate(180)"/>
    <path class="uuid-96c6668b-85f0-4f2e-b944-c3520415a9bc" d="M663.08,262.14h12.11v42.35c0,.87-.7,1.57-1.57,1.57h-9.19c-.75,0-1.35-.61-1.35-1.35v-42.58h0Z" transform="translate(1338.27 568.2) rotate(180)"/>
    <path class="uuid-96c6668b-85f0-4f2e-b944-c3520415a9bc" d="M670.61,265.44h-.89c2.58,0,2.26,2.09,2.26,4.67v36.02s-6.04,0-6.04,0v-36.02c0-2.58,2.09-4.67,4.67-4.67Z"/>
    <line class="uuid-96c6668b-85f0-4f2e-b944-c3520415a9bc" x1="619.12" y1="296.74" x2="602.8" y2="296.74"/>
    <line class="uuid-96c6668b-85f0-4f2e-b944-c3520415a9bc" x1="619.12" y1="282.32" x2="602.8" y2="282.32"/>
    <path class="uuid-96c6668b-85f0-4f2e-b944-c3520415a9bc" d="M630.97,262.21h21.55v41.42c0,1.39-1.13,2.51-2.51,2.51h-16.52c-1.39,0-2.51-1.13-2.51-2.51v-41.42h0Z" transform="translate(1283.49 568.35) rotate(-180)"/>
    <path class="uuid-96c6668b-85f0-4f2e-b944-c3520415a9bc" d="M633.09,265.44h17.03v38.71c0,1.1-.89,1.99-1.99,1.99h-13.06c-1.1,0-1.99-.89-1.99-1.99v-38.71h0Z" transform="translate(1283.21 571.58) rotate(180)"/>
    <line class="uuid-96c6668b-85f0-4f2e-b944-c3520415a9bc" x1="650.12" y1="296.74" x2="633.09" y2="296.74"/>
    <line class="uuid-96c6668b-85f0-4f2e-b944-c3520415a9bc" x1="650.12" y1="282.32" x2="633.09" y2="282.32"/>
    <line class="uuid-96c6668b-85f0-4f2e-b944-c3520415a9bc" x1="656.31" y1="306.14" x2="656.31" y2="250.72"/>
    <g>
      <circle class="uuid-53076eb2-38b0-415f-a46b-a7751e609784" cx="642.69" cy="294.75" r="15.38"/>
      <text class="uuid-fc1fefef-f44b-43a9-a3ad-b678adab4ed0" transform="translate(638.97 302.74)"><tspan x="0" y="0">1</tspan></text>
    </g>
    <line class="uuid-96c6668b-85f0-4f2e-b944-c3520415a9bc" x1="654.29" y1="250.72" x2="654.29" y2="244.65"/>
    <line class="uuid-96c6668b-85f0-4f2e-b944-c3520415a9bc" x1="573.41" y1="226.93" x2="573.41" y2="182.52"/>
    <line class="uuid-96c6668b-85f0-4f2e-b944-c3520415a9bc" x1="570.43" y1="226.93" x2="570.43" y2="182.52"/>
    <line class="uuid-96c6668b-85f0-4f2e-b944-c3520415a9bc" x1="548.73" y1="235.57" x2="548.73" y2="189.99"/>
    <line class="uuid-96c6668b-85f0-4f2e-b944-c3520415a9bc" x1="541.82" y1="235.57" x2="541.82" y2="189.99"/>
    <line class="uuid-96c6668b-85f0-4f2e-b944-c3520415a9bc" x1="508.01" y1="235.57" x2="508.01" y2="189.99"/>
    <line class="uuid-96c6668b-85f0-4f2e-b944-c3520415a9bc" x1="501.11" y1="235.57" x2="501.11" y2="189.99"/>
    <line class="uuid-96c6668b-85f0-4f2e-b944-c3520415a9bc" x1="504.56" y1="235.57" x2="504.56" y2="189.99"/>
    <line class="uuid-96c6668b-85f0-4f2e-b944-c3520415a9bc" x1="535.94" y1="228.27" x2="535.94" y2="189.99"/>
    <line class="uuid-96c6668b-85f0-4f2e-b944-c3520415a9bc" x1="533.13" y1="228.27" x2="533.13" y2="189.99"/>
    <line class="uuid-96c6668b-85f0-4f2e-b944-c3520415a9bc" x1="479.25" y1="228.27" x2="479.25" y2="189.99"/>
    <line class="uuid-96c6668b-85f0-4f2e-b944-c3520415a9bc" x1="476.44" y1="228.27" x2="476.44" y2="189.99"/>
    <line class="uuid-96c6668b-85f0-4f2e-b944-c3520415a9bc" x1="474.18" y1="228.27" x2="474.18" y2="189.99"/>
    <line class="uuid-96c6668b-85f0-4f2e-b944-c3520415a9bc" x1="463.34" y1="235.06" x2="463.34" y2="189.99"/>
    <line class="uuid-96c6668b-85f0-4f2e-b944-c3520415a9bc" x1="461.09" y1="235.06" x2="461.09" y2="189.99"/>
    <line class="uuid-96c6668b-85f0-4f2e-b944-c3520415a9bc" x1="463.34" y1="228.27" x2="501.11" y2="228.27"/>
    <line class="uuid-96c6668b-85f0-4f2e-b944-c3520415a9bc" x1="385.61" y1="261.99" x2="501.97" y2="261.99"/>
    <line class="uuid-96c6668b-85f0-4f2e-b944-c3520415a9bc" x1="377.04" y1="263.78" x2="501.97" y2="263.78"/>
    <polyline class="uuid-96c6668b-85f0-4f2e-b944-c3520415a9bc" points="497.9 303.44 373.09 303.44 324.86 303.44 324.86 301.57 381.65 301.57 497.9 301.57"/>
    <polyline class="uuid-96c6668b-85f0-4f2e-b944-c3520415a9bc" points="498.07 317.8 373.14 317.8 324.86 317.8 324.86 314.46 381.7 314.46 498.07 314.46"/>
    <line class="uuid-96c6668b-85f0-4f2e-b944-c3520415a9bc" x1="377.05" y1="270.19" x2="501.97" y2="270.19"/>
    <line class="uuid-96c6668b-85f0-4f2e-b944-c3520415a9bc" x1="377.05" y1="271.97" x2="501.97" y2="271.97"/>
    <line class="uuid-96c6668b-85f0-4f2e-b944-c3520415a9bc" x1="507.89" y1="228.27" x2="541.82" y2="228.27"/>
    <line class="uuid-96c6668b-85f0-4f2e-b944-c3520415a9bc" x1="548.73" y1="228.27" x2="570.43" y2="228.27"/>
    <line class="uuid-96c6668b-85f0-4f2e-b944-c3520415a9bc" x1="548.73" y1="222.39" x2="570.43" y2="222.39"/>
    <line class="uuid-96c6668b-85f0-4f2e-b944-c3520415a9bc" x1="548.73" y1="216.52" x2="570.43" y2="216.52"/>
    <line class="uuid-96c6668b-85f0-4f2e-b944-c3520415a9bc" x1="548.73" y1="210.64" x2="570.43" y2="210.64"/>
    <line class="uuid-96c6668b-85f0-4f2e-b944-c3520415a9bc" x1="548.73" y1="204.77" x2="570.43" y2="204.77"/>
    <line class="uuid-96c6668b-85f0-4f2e-b944-c3520415a9bc" x1="479.25" y1="228.27" x2="501.11" y2="228.27"/>
    <line class="uuid-96c6668b-85f0-4f2e-b944-c3520415a9bc" x1="479.25" y1="222.39" x2="501.11" y2="222.39"/>
    <line class="uuid-96c6668b-85f0-4f2e-b944-c3520415a9bc" x1="479.25" y1="216.52" x2="501.11" y2="216.52"/>
    <line class="uuid-96c6668b-85f0-4f2e-b944-c3520415a9bc" x1="479.25" y1="210.64" x2="501.11" y2="210.64"/>
    <line class="uuid-96c6668b-85f0-4f2e-b944-c3520415a9bc" x1="479.25" y1="204.77" x2="501.11" y2="204.77"/>
    <line class="uuid-96c6668b-85f0-4f2e-b944-c3520415a9bc" x1="573.41" y1="222.39" x2="587.77" y2="222.39"/>
    <line class="uuid-96c6668b-85f0-4f2e-b944-c3520415a9bc" x1="573.41" y1="216.52" x2="587.77" y2="216.52"/>
    <line class="uuid-96c6668b-85f0-4f2e-b944-c3520415a9bc" x1="573.41" y1="210.64" x2="587.77" y2="210.64"/>
    <line class="uuid-96c6668b-85f0-4f2e-b944-c3520415a9bc" x1="573.41" y1="204.77" x2="587.77" y2="204.77"/>
    <g>
      <circle class="uuid-53076eb2-38b0-415f-a46b-a7751e609784" cx="523.16" cy="212.25" r="15.38"/>
      <text class="uuid-fc1fefef-f44b-43a9-a3ad-b678adab4ed0" transform="translate(517.36 220.24)"><tspan x="0" y="0">2</tspan></text>
    </g>
    <polyline class="uuid-96c6668b-85f0-4f2e-b944-c3520415a9bc" points="501.97 271.97 501.97 261.99 504.57 261.99 504.57 268.86 514.74 268.86 514.74 265.52 534.04 265.52 534.04 266.98 543.84 266.98"/>
    <line class="uuid-96c6668b-85f0-4f2e-b944-c3520415a9bc" x1="497.9" y1="263.78" x2="497.9" y2="270.19"/>
    <line class="uuid-96c6668b-85f0-4f2e-b944-c3520415a9bc" x1="496.1" y1="263.78" x2="496.1" y2="270.19"/>
    <line class="uuid-96c6668b-85f0-4f2e-b944-c3520415a9bc" x1="493.11" y1="263.78" x2="493.11" y2="270.19"/>
    <line class="uuid-96c6668b-85f0-4f2e-b944-c3520415a9bc" x1="491.3" y1="263.78" x2="491.3" y2="270.19"/>
    <line class="uuid-96c6668b-85f0-4f2e-b944-c3520415a9bc" x1="487.28" y1="263.78" x2="487.28" y2="270.19"/>
    <line class="uuid-96c6668b-85f0-4f2e-b944-c3520415a9bc" x1="482.89" y1="263.78" x2="482.89" y2="270.19"/>
    <line class="uuid-96c6668b-85f0-4f2e-b944-c3520415a9bc" x1="478.55" y1="263.78" x2="478.55" y2="270.19"/>
    <line class="uuid-96c6668b-85f0-4f2e-b944-c3520415a9bc" x1="473.54" y1="263.78" x2="473.54" y2="270.19"/>
    <line class="uuid-96c6668b-85f0-4f2e-b944-c3520415a9bc" x1="449.34" y1="263.78" x2="449.34" y2="270.19"/>
    <line class="uuid-96c6668b-85f0-4f2e-b944-c3520415a9bc" x1="442.47" y1="263.78" x2="442.47" y2="270.19"/>
    <line class="uuid-96c6668b-85f0-4f2e-b944-c3520415a9bc" x1="435.17" y1="263.78" x2="435.17" y2="270.19"/>
    <line class="uuid-96c6668b-85f0-4f2e-b944-c3520415a9bc" x1="427.43" y1="263.78" x2="427.43" y2="270.19"/>
    <line class="uuid-96c6668b-85f0-4f2e-b944-c3520415a9bc" x1="419.9" y1="263.78" x2="419.9" y2="270.19"/>
    <line class="uuid-96c6668b-85f0-4f2e-b944-c3520415a9bc" x1="412.55" y1="263.78" x2="412.55" y2="270.19"/>
    <line class="uuid-96c6668b-85f0-4f2e-b944-c3520415a9bc" x1="404.64" y1="263.78" x2="404.64" y2="270.19"/>
    <line class="uuid-96c6668b-85f0-4f2e-b944-c3520415a9bc" x1="397.06" y1="263.78" x2="397.06" y2="270.19"/>
    <line class="uuid-96c6668b-85f0-4f2e-b944-c3520415a9bc" x1="389.92" y1="263.78" x2="389.92" y2="270.19"/>
    <line class="uuid-96c6668b-85f0-4f2e-b944-c3520415a9bc" x1="383.84" y1="263.78" x2="383.84" y2="270.19"/>
    <line class="uuid-96c6668b-85f0-4f2e-b944-c3520415a9bc" x1="324.86" y1="303.44" x2="324.86" y2="314.46"/>
    <line class="uuid-96c6668b-85f0-4f2e-b944-c3520415a9bc" x1="328.72" y1="303.44" x2="328.72" y2="314.46"/>
    <line class="uuid-96c6668b-85f0-4f2e-b944-c3520415a9bc" x1="333.17" y1="303.44" x2="333.17" y2="314.46"/>
    <line class="uuid-96c6668b-85f0-4f2e-b944-c3520415a9bc" x1="262.83" y1="200.28" x2="262.83" y2="309.12"/>
    <line class="uuid-96c6668b-85f0-4f2e-b944-c3520415a9bc" x1="264.52" y1="200.28" x2="264.52" y2="309.12"/>
    <line class="uuid-96c6668b-85f0-4f2e-b944-c3520415a9bc" x1="261.86" y1="200.28" x2="261.86" y2="309.12"/>
    <line class="uuid-96c6668b-85f0-4f2e-b944-c3520415a9bc" x1="260.4" y1="200.28" x2="260.4" y2="309.12"/>
    <line class="uuid-96c6668b-85f0-4f2e-b944-c3520415a9bc" x1="258.25" y1="200.28" x2="258.25" y2="309.12"/>
    <line class="uuid-96c6668b-85f0-4f2e-b944-c3520415a9bc" x1="255.75" y1="200.28" x2="255.75" y2="309.12"/>
    <line class="uuid-96c6668b-85f0-4f2e-b944-c3520415a9bc" x1="254.29" y1="200.28" x2="254.29" y2="309.12"/>
    <line class="uuid-96c6668b-85f0-4f2e-b944-c3520415a9bc" x1="251.97" y1="200.28" x2="251.97" y2="309.12"/>
    <polyline class="uuid-96c6668b-85f0-4f2e-b944-c3520415a9bc" points="265.23 200.28 248.61 200.28 248.61 309.12 250.23 309.12"/>
    <line class="uuid-96c6668b-85f0-4f2e-b944-c3520415a9bc" x1="337.61" y1="303.44" x2="337.61" y2="314.46"/>
    <line class="uuid-96c6668b-85f0-4f2e-b944-c3520415a9bc" x1="347.86" y1="303.44" x2="347.86" y2="314.46"/>
    <line class="uuid-96c6668b-85f0-4f2e-b944-c3520415a9bc" x1="352.92" y1="303.44" x2="352.92" y2="314.46"/>
    <line class="uuid-96c6668b-85f0-4f2e-b944-c3520415a9bc" x1="357.94" y1="303.44" x2="357.94" y2="314.46"/>
    <line class="uuid-96c6668b-85f0-4f2e-b944-c3520415a9bc" x1="363.24" y1="303.44" x2="363.24" y2="314.46"/>
    <line class="uuid-96c6668b-85f0-4f2e-b944-c3520415a9bc" x1="367.53" y1="303.44" x2="367.53" y2="314.46"/>
    <line class="uuid-96c6668b-85f0-4f2e-b944-c3520415a9bc" x1="371.4" y1="303.44" x2="371.4" y2="314.46"/>
    <line class="uuid-96c6668b-85f0-4f2e-b944-c3520415a9bc" x1="374.59" y1="303.44" x2="374.59" y2="314.46"/>
    <line class="uuid-96c6668b-85f0-4f2e-b944-c3520415a9bc" x1="377.31" y1="303.44" x2="377.31" y2="314.46"/>
    <line class="uuid-96c6668b-85f0-4f2e-b944-c3520415a9bc" x1="379.72" y1="303.44" x2="379.72" y2="314.46"/>
    <line class="uuid-96c6668b-85f0-4f2e-b944-c3520415a9bc" x1="397.06" y1="303.44" x2="397.06" y2="314.46"/>
    <line class="uuid-96c6668b-85f0-4f2e-b944-c3520415a9bc" x1="419.9" y1="303.44" x2="419.9" y2="314.46"/>
    <line class="uuid-96c6668b-85f0-4f2e-b944-c3520415a9bc" x1="426.89" y1="303.44" x2="426.89" y2="314.46"/>
    <line class="uuid-96c6668b-85f0-4f2e-b944-c3520415a9bc" x1="433.66" y1="303.44" x2="433.66" y2="314.46"/>
    <line class="uuid-96c6668b-85f0-4f2e-b944-c3520415a9bc" x1="440.08" y1="303.44" x2="440.08" y2="314.46"/>
    <line class="uuid-96c6668b-85f0-4f2e-b944-c3520415a9bc" x1="446.59" y1="303.44" x2="446.59" y2="314.46"/>
    <line class="uuid-96c6668b-85f0-4f2e-b944-c3520415a9bc" x1="452.27" y1="303.44" x2="452.27" y2="314.46"/>
    <line class="uuid-96c6668b-85f0-4f2e-b944-c3520415a9bc" x1="458.13" y1="303.44" x2="458.13" y2="314.46"/>
    <line class="uuid-96c6668b-85f0-4f2e-b944-c3520415a9bc" x1="463.63" y1="303.44" x2="463.63" y2="314.46"/>
    <line class="uuid-96c6668b-85f0-4f2e-b944-c3520415a9bc" x1="468.77" y1="303.44" x2="468.77" y2="314.46"/>
    <line class="uuid-96c6668b-85f0-4f2e-b944-c3520415a9bc" x1="473.72" y1="303.44" x2="473.72" y2="314.46"/>
    <line class="uuid-96c6668b-85f0-4f2e-b944-c3520415a9bc" x1="478.03" y1="303.44" x2="478.03" y2="314.46"/>
    <line class="uuid-96c6668b-85f0-4f2e-b944-c3520415a9bc" x1="482.15" y1="303.44" x2="482.15" y2="314.46"/>
    <line class="uuid-96c6668b-85f0-4f2e-b944-c3520415a9bc" x1="485.45" y1="303.44" x2="485.45" y2="314.46"/>
    <line class="uuid-96c6668b-85f0-4f2e-b944-c3520415a9bc" x1="489.21" y1="303.44" x2="489.21" y2="314.46"/>
    <line class="uuid-96c6668b-85f0-4f2e-b944-c3520415a9bc" x1="491.87" y1="303.44" x2="491.87" y2="314.46"/>
    <line class="uuid-96c6668b-85f0-4f2e-b944-c3520415a9bc" x1="493.33" y1="303.44" x2="493.33" y2="314.46"/>
    <line class="uuid-96c6668b-85f0-4f2e-b944-c3520415a9bc" x1="495.26" y1="303.44" x2="495.26" y2="314.46"/>
    <line class="uuid-96c6668b-85f0-4f2e-b944-c3520415a9bc" x1="378.64" y1="263.78" x2="378.64" y2="270.19"/>
    <line class="uuid-96c6668b-85f0-4f2e-b944-c3520415a9bc" x1="387.38" y1="238.94" x2="500.52" y2="238.94"/>
    <line class="uuid-96c6668b-85f0-4f2e-b944-c3520415a9bc" x1="504.56" y1="238.94" x2="543.85" y2="238.94"/>
    <line class="uuid-96c6668b-85f0-4f2e-b944-c3520415a9bc" x1="500.52" y1="261.99" x2="500.52" y2="235.57"/>
    <line class="uuid-96c6668b-85f0-4f2e-b944-c3520415a9bc" x1="497.9" y1="302.22" x2="497.9" y2="272.57"/>
    <line class="uuid-96c6668b-85f0-4f2e-b944-c3520415a9bc" x1="511.9" y1="308.65" x2="511.9" y2="271.97"/>
    <line class="uuid-96c6668b-85f0-4f2e-b944-c3520415a9bc" x1="521.24" y1="307.45" x2="521.24" y2="271.97"/>
    <line class="uuid-96c6668b-85f0-4f2e-b944-c3520415a9bc" x1="523.73" y1="307.45" x2="523.73" y2="271.97"/>
    <line class="uuid-96c6668b-85f0-4f2e-b944-c3520415a9bc" x1="504.56" y1="261.99" x2="504.56" y2="235.57"/>
    <g>
      <path class="uuid-53076eb2-38b0-415f-a46b-a7751e609784" d="M475.82,252.62c0,8.49-6.88,15.38-15.38,15.38-8.49,0-15.38-6.88-15.38-15.38s6.88-15.38,15.38-15.38c8.49,0,15.38,6.88,15.38,15.38Z"/>
      <text class="uuid-fc1fefef-f44b-43a9-a3ad-b678adab4ed0" transform="translate(454.76 260.62)"><tspan x="0" y="0">3</tspan></text>
    </g>
    <g>
      <circle class="uuid-53076eb2-38b0-415f-a46b-a7751e609784" cx="419.9" cy="293.21" r="15.38"/>
      <text class="uuid-fc1fefef-f44b-43a9-a3ad-b678adab4ed0" transform="translate(413.7 301.21)"><tspan x="0" y="0">4</tspan></text>
    </g>
    <polyline class="uuid-96c6668b-85f0-4f2e-b944-c3520415a9bc" points="359.03 301.57 359.03 275.47 334.09 275.47 334.09 301.57"/>
    <polyline class="uuid-96c6668b-85f0-4f2e-b944-c3520415a9bc" points="359.03 301.57 359.03 282.13 352.92 282.13 352.92 301.57"/>
    <polyline class="uuid-96c6668b-85f0-4f2e-b944-c3520415a9bc" points="359.03 301.57 359.03 282.13 354.4 282.13 354.4 301.57"/>
    <polyline class="uuid-96c6668b-85f0-4f2e-b944-c3520415a9bc" points="338.72 301.57 338.72 282.13 334.09 282.13 334.09 301.57"/>
    <polyline class="uuid-96c6668b-85f0-4f2e-b944-c3520415a9bc" points="340.2 301.57 340.2 282.13 334.09 282.13 334.09 301.57"/>
    <polyline class="uuid-96c6668b-85f0-4f2e-b944-c3520415a9bc" points="265.23 337.46 265.23 312.07 248.61 312.07 248.61 337.46"/>
    <polyline class="uuid-96c6668b-85f0-4f2e-b944-c3520415a9bc" points="265.23 312.07 265.23 309.12 248.61 309.12 248.61 312.07"/>
    <polyline class="uuid-96c6668b-85f0-4f2e-b944-c3520415a9bc" points="265.23 345.33 265.23 337.46 248.03 337.46 248.03 345"/>
    <polyline class="uuid-96c6668b-85f0-4f2e-b944-c3520415a9bc" points="319.75 361.47 319.75 337.87 379.72 337.87 379.72 358.29"/>
    <polyline class="uuid-96c6668b-85f0-4f2e-b944-c3520415a9bc" points="399.89 357.23 399.89 339.33 508.25 339.33 508.25 345.7"/>
    <rect class="uuid-96c6668b-85f0-4f2e-b944-c3520415a9bc" x="508.25" y="338.51" width="3.41" height="7.26"/>
    <rect class="uuid-96c6668b-85f0-4f2e-b944-c3520415a9bc" x="538.72" y="321.22" width="2.7" height="25.02"/>
    <rect class="uuid-96c6668b-85f0-4f2e-b944-c3520415a9bc" x="530.17" y="321.22" width="2.7" height="25.02"/>
    <rect class="uuid-96c6668b-85f0-4f2e-b944-c3520415a9bc" x="517.46" y="321.22" width="5.13" height="25.02"/>
    <polygon class="uuid-96c6668b-85f0-4f2e-b944-c3520415a9bc" points="504.97 321.22 510.81 321.22 510.81 338.51 508.25 338.51 508.25 339.33 504.97 339.33 504.97 321.22"/>
    <rect class="uuid-96c6668b-85f0-4f2e-b944-c3520415a9bc" x="495.59" y="321.22" width="2.31" height="18.1"/>
    <rect class="uuid-96c6668b-85f0-4f2e-b944-c3520415a9bc" x="497.9" y="321.22" width="7.07" height="18.1"/>
    <rect class="uuid-96c6668b-85f0-4f2e-b944-c3520415a9bc" x="480.9" y="321.22" width="7.89" height="18.1"/>
    <rect class="uuid-96c6668b-85f0-4f2e-b944-c3520415a9bc" x="460.88" y="321.22" width="7.89" height="18.1"/>
    <rect class="uuid-96c6668b-85f0-4f2e-b944-c3520415a9bc" x="440.08" y="321.22" width="7.89" height="18.1"/>
    <rect class="uuid-96c6668b-85f0-4f2e-b944-c3520415a9bc" x="418.28" y="321.22" width="8.61" height="18.1"/>
    <rect class="uuid-96c6668b-85f0-4f2e-b944-c3520415a9bc" x="337.15" y="321.22" width="8.61" height="16.64"/>
    <rect class="uuid-96c6668b-85f0-4f2e-b944-c3520415a9bc" x="345.75" y="321.22" width="8.61" height="16.64"/>
    <g>
      <circle class="uuid-53076eb2-38b0-415f-a46b-a7751e609784" cx="399.27" cy="335.14" r="15.38"/>
      <text class="uuid-fc1fefef-f44b-43a9-a3ad-b678adab4ed0" transform="translate(393.59 343.13)"><tspan x="0" y="0">5</tspan></text>
    </g>
  </g>
</svg>