<?xml version="1.0" encoding="UTF-8"?>
<svg id="uuid-cd45d5bd-3bb0-474a-b44f-28355c301de7" data-name="Capa 2" xmlns="http://www.w3.org/2000/svg" viewBox="0 0 84.33 84.33">
  <defs>
    <style>
      .uuid-87170dd0-fe57-4939-b5b9-0468e2be5819 {
        fill-rule: evenodd;
        stroke: #000;
        stroke-miterlimit: 10;
      }
    </style>
  </defs>
  <g id="uuid-ad975765-c667-4f65-8448-f307bf0154c0" data-name="Capa 1">
    <path class="uuid-87170dd0-fe57-4939-b5b9-0468e2be5819" d="M83.83,42.17c0,23.01-18.66,41.67-41.67,41.67S.5,65.18.5,42.17,19.16.5,42.17.5s41.67,18.66,41.67,41.67ZM76.39,53.7c2.51-7.45,2.51-15.62,0-23.08h-17.69c.84,7.51.84,15.57,0,23.08h17.69s0,0,0,0ZM53.12,30.63h-21.9c-.88,7.46-.88,15.62,0,23.08h21.9c.88-7.46.88-15.62,0-23.08ZM25.63,30.63H7.94c-2.51,7.45-2.51,15.62,0,23.08h17.69c-.84-7.51-.84-15.57,0-23.08ZM10.35,59.26c4.62,8.58,12.57,15.02,22.05,17.68-3.03-4.89-4.9-11.51-5.98-17.68H10.35s0,0,0,0ZM42.17,78.28c5.32,0,8.97-12.99,10.11-19.02h-20.21c1.13,6.03,4.79,19.02,10.11,19.02ZM57.91,59.26c-1.08,6.18-2.95,12.8-5.98,17.68,9.48-2.66,17.43-9.1,22.05-17.68h-16.07s0,0,0,0ZM73.98,25.07c-4.62-8.58-12.58-15.02-22.05-17.68,3.03,4.89,4.9,11.5,5.98,17.68h16.07s0,0,0,0ZM42.17,6.06c-5.32,0-8.97,12.99-10.11,19.02h20.21c-1.13-6.03-4.79-19.02-10.11-19.02ZM26.42,25.07c1.08-6.18,2.95-12.8,5.98-17.68-9.48,2.66-17.43,9.1-22.05,17.68h16.07s0,0,0,0Z"/>
  </g>
</svg>