<?xml version="1.0" encoding="UTF-8"?>
<svg id="uuid-074d6e14-0702-4557-9adb-5e6c1be9080e" data-name="Capa 2" xmlns="http://www.w3.org/2000/svg" viewBox="0 0 92.37 92.37">
  <g id="uuid-e8c54d93-884c-435a-aa8e-edffb94d3c59" data-name="Capa 1">
    <g>
      <path d="M0,52.55L52.55,0l14.37,14.37-3.23,3.23c-.68.68-1.34,2.91-1.43,3.9-.45,5.06,3.55,9.06,8.62,8.62.99-.09,3.22-.75,3.9-1.43l3.23-3.23,14.37,14.37-52.55,52.55-14.37-14.37c1.88-1.92,3.87-3.37,4.51-6.11,1.33-5.71-3.78-10.82-9.49-9.49-2.74.64-4.19,2.63-6.11,4.51L0,52.55ZM35.1,27.09l-25.45,25.45,5.03,5.03c7.5-4.5,17.21-1.64,20.94,6.41,2.01,4.35,1.67,9.61-.82,13.7l5.03,5.03,25.45-25.45-3.18-3.18,4.72-4.72,3.18,3.18,12.73-12.73-5.03-5.03c-7.5,4.5-17.21,1.64-20.94-6.41-2.01-4.35-1.67-9.61.82-13.7l-5.03-5.03-12.73,12.73,3.18,3.18-4.72,4.72-3.18-3.18Z"/>
      <rect x="44.44" y="31.64" width="6.68" height="6.82" transform="translate(-10.79 44.05) rotate(-45)"/>
      <rect x="53.98" y="41.18" width="6.68" height="6.82" transform="translate(-14.74 53.59) rotate(-45)"/>
    </g>
  </g>
</svg>